<svg id="Layer_1" data-name="Layer 1" xmlns="http://www.w3.org/2000/svg" viewBox="0 0 681.9 667.01"><defs><style>.cls-1{fill:#15bcc4;}.cls-1,.cls-3{fill-rule:evenodd;}.cls-2,.cls-3{fill:#333;}.cls-4{font-size:120px;font-family:MyriadPro-Regular, Myriad Pro;letter-spacing:0.38em;}.cls-5{letter-spacing:0.38em;}.cls-6{letter-spacing:0.36em;}.cls-7{letter-spacing:0.37em;}.cls-8{letter-spacing:0.4em;}</style></defs><title>hopper</title><path class="cls-1" d="M1014.14,622.56A171.2,171.2,0,1,1,843,793.75a171.19,171.19,0,0,1,171.19-171.19" transform="translate(-673.05 -602.17)"/><path class="cls-2" d="M1053.25,981.08a9.47,9.47,0,1,1,4.46-18.41c40.49,9.81,83.81,9.08,112.84-1.33,11-3.93,19.66-9.2,24.9-15.67a23.57,23.57,0,0,0,4.77-20.53c-2.56-12.18-12.68-27.1-32.77-44.77a88.58,88.58,0,0,0-17.06-11.83,93.07,93.07,0,0,0-22.14-8.27c-2.25-.53-15.44-25.5-17.55-29.5-18.86-36-60.73-102.63-117.47-130.53A127.88,127.88,0,0,0,968.36,691a111.94,111.94,0,0,0-13.19-2.52c6.24,33.5,28.39,128.95,80.52,147.48a9.48,9.48,0,0,1-5.52,18.13q-16.14-3.24-31.51-4.76a285.5,285.5,0,0,0-31.1-1.46c-51.7.43-94.47,15.5-125,38.12-20.58,15.24-35.56,33.85-43.9,53.6-8.16,19.31-10,39.8-4.41,59.28,5.42,19,17.91,37.22,38.42,52.7C861,1073,898.75,1066,928,1046.91c14.91-9.71,27.54-22.49,35.64-36.26,7.68-13,11.18-26.85,8.42-39.4-4-18-21.23-34.28-58.14-43.71a9.5,9.5,0,1,1,4.68-18.41c45,11.5,66.5,33.36,71.95,58,3.87,17.55-.57,36.08-10.57,53.07-9.58,16.28-24.35,31.29-41.66,42.56-35.25,23-81.4,30.86-117.11,3.92-24-18.11-38.75-39.8-45.26-62.65-6.77-23.72-4.62-48.54,5.22-71.83,9.65-22.86,26.75-44.21,50.07-61.47,33.54-24.83,80.15-41.37,136.16-41.84,8.94-.07,18.09.25,27.41,1-46.38-50.1-60.36-150.1-60.41-150.45l-.07-1.49a9.48,9.48,0,0,1,9.61-9.32,127.32,127.32,0,0,1,29,3.9,146.58,146.58,0,0,1,28.58,10.65c61.53,30.26,106,100.79,125.93,138.76,4,7.6,7,13.86,8.93,18.23.43,1,.81,1.91,1.13,2.83a111.59,111.59,0,0,1,21.69,8.7A108.15,108.15,0,0,1,1180,866.12c23.39,20.57,35.41,39.08,38.78,55.16,3,14.1-.45,26.26-8.63,36.35-7.49,9.24-19,16.44-33.22,21.53-32.28,11.58-79.78,12.56-123.68,1.92" transform="translate(-673.05 -602.17)"/><path class="cls-2" d="M690.69,879.44a9.47,9.47,0,1,1,17.67-6.83c6.2,15.92,15.65,32.6,30,46.56a113.37,113.37,0,0,0,45.34,26.71A9.5,9.5,0,1,1,778,964a132.13,132.13,0,0,1-52.84-31.23c-16.61-16.1-27.44-35.18-34.5-53.32" transform="translate(-673.05 -602.17)"/><path class="cls-2" d="M1030.23,708.05c0,5.25-1.9,3.61-7.15,3.61s-11.86,1.64-11.86-3.61V611.67a9.51,9.51,0,0,1,16.43-6.51c10,9,136.26,124.21,92.06,215-2.29,4.72-.72,7.12-5.44,4.83s-13.94-8.43-11.64-13.14c30.81-63.28-39.52-144.8-72.4-178Z" transform="translate(-673.05 -602.17)"/><path class="cls-2" d="M1207.27,992.53a9.48,9.48,0,0,1,2.52,18.79c-.33,0-117.15,15.16-116.38,65.78a9.47,9.47,0,1,1-18.93.23c-1-67.68,132.41-84.75,132.79-84.8" transform="translate(-673.05 -602.17)"/><path class="cls-3" d="M1134.54,891a15.48,15.48,0,1,1-15.47,15.48A15.48,15.48,0,0,1,1134.54,891" transform="translate(-673.05 -602.17)"/><text class="cls-4" transform="translate(0 637.01)">H<tspan class="cls-5" x="124.09" y="0">O</tspan><tspan class="cls-6" x="252.49" y="0">PP</tspan><tspan class="cls-7" x="466.31" y="0">E</tspan><tspan class="cls-8" x="569.34" y="0">R</tspan></text></svg>